# xmcd CD database file
# Copyright (C) 1993-1998 Ti Kan
#
# Track frame offsets:
# 3261
# 20301
# 44511
# 78171
#
# Disc length: 1332 seconds
# Submitted via: CD-Runner 7.0
#
# Revision: 1
# Processed by: cddbd v1.4b41PL1 Copyright (c) Steve Scherf et al.
#
DISCID=28050904
DTITLE=Luther Vandross - Love the One You"re With
DYEAR=1900
DGENRE=
TTITLE0=Love the One You"re With
TTITLE1=Hott Butterfly - Gregg Diamond
TTITLE2=I Who Have Nothing (with Martha Wash)
TTITLE3=Give Me the Reason (Live at Wembley)
EXTD=A special Promotional Single
EXTD=\nSony Epic
EXTT0=
EXTT1=
EXTT2=
EXTT3=
PLAYORDER=
